<?xml version="1.0" encoding="utf-8"?>
<!-- Generator: Adobe Illustrator 16.0.0, SVG Export Plug-In . SVG Version: 6.00 Build 0)  -->
<!DOCTYPE svg PUBLIC "-//W3C//DTD SVG 1.1//EN" "http://www.w3.org/Graphics/SVG/1.1/DTD/svg11.dtd">
<svg version="1.1" id="Layer_1" xmlns="http://www.w3.org/2000/svg" xmlns:xlink="http://www.w3.org/1999/xlink" x="0px" y="0px"
	 width="320px" height="80px" viewBox="0 0 320 80" enable-background="new 0 0 320 80" xml:space="preserve">
<g>
	<path fill="#FFFFFF" d="M259.236,16.224C224.879,0.953,211.897,2.043,181.083,2.043c-45.597,0-57.647,12.272-74.281,21.544
		c-16.633,9.272-0.272,6.271-52.628,12.27c-21.89,2.509-34.453,5.174-41.861,9.981C4.746,50.74,1.955,61.783,5.815,69.932
		c0.269,0.569,1.118,0.372,1.102-0.256c-0.207-8.319,5.188-27.828,60.355-27.828c47.069,0,19.364-2.981,60.82-23.488
		c43.063-21.303,96.107-6.429,111.083-1.115c15.642,5.554,40.279,14.563,21.155,28.535c-13.441,9.824-57.024,16.377-81.735,19.402
		c-1.084,0.132-0.961,1.74,0.129,1.701c33.384-1.126,105.156-7.057,135.78-36.661C319.273,25.611,293.594,31.495,259.236,16.224"/>
	<path fill="#FFFFFF" d="M311.646,37.323c-5.491,4.695-12.054,8.751-19.324,12.252v4.112h19.324c1.893,0,3.427-1.533,3.427-3.423
		V40.75C315.073,38.858,313.539,37.323,311.646,37.323"/>
	<path fill="#FFFFFF" d="M33.02,54.729h-7.738c-3.644,0-7.042,1.89-8.923,5.006c-1.501,2.495-2.215,4.912-2.506,7.006h12.411
		c5.182,0,9.384-4.2,9.384-9.384C35.647,55.907,34.471,54.729,33.02,54.729"/>
	<path fill="#FFFFFF" d="M127.432,29.785h-11.113c-1.929,0-3.796,0.688-5.265,1.938l-7.542,6.418
		c-1.076,0.916-0.429,2.676,0.985,2.676h6.664c6.926,0,13.396-3.462,17.237-9.227C128.911,30.822,128.354,29.785,127.432,29.785"/>
	<g>
		<path fill="#EA6722" d="M46.826,64.034l-2.148,6.505h-2.762l7.027-20.682h3.222l7.058,20.682h-2.854l-2.209-6.505H46.826z
			 M53.607,61.947l-2.025-5.953c-0.46-1.351-0.767-2.577-1.074-3.774h-0.061c-0.307,1.228-0.645,2.485-1.043,3.744l-2.025,5.983
			H53.607z"/>
		<path fill="#EA6722" d="M73.734,66.488c0,1.534,0.031,2.885,0.123,4.051h-2.394l-0.153-2.424h-0.062
			c-0.706,1.196-2.271,2.762-4.91,2.762c-2.332,0-5.125-1.289-5.125-6.506v-8.684h2.7v8.224c0,2.823,0.859,4.726,3.314,4.726
			c1.811,0,3.069-1.258,3.56-2.455c0.154-0.398,0.246-0.89,0.246-1.381v-9.113h2.7V66.488z"/>
		<path fill="#EA6722" d="M80.606,51.422v4.266h3.866v2.056h-3.866v8.009c0,1.842,0.521,2.885,2.025,2.885
			c0.706,0,1.227-0.092,1.565-0.185l0.123,2.025c-0.521,0.215-1.35,0.368-2.394,0.368c-1.258,0-2.271-0.398-2.915-1.135
			c-0.767-0.798-1.043-2.117-1.043-3.867v-8.101h-2.301v-2.056h2.301v-3.56L80.606,51.422z"/>
		<path fill="#EA6722" d="M100.09,62.99c0,5.493-3.805,7.887-7.395,7.887c-4.02,0-7.119-2.946-7.119-7.641
			c0-4.972,3.253-7.887,7.365-7.887C97.206,55.35,100.09,58.449,100.09,62.99z M88.307,63.144c0,3.253,1.872,5.708,4.511,5.708
			c2.578,0,4.511-2.425,4.511-5.77c0-2.516-1.258-5.707-4.449-5.707S88.307,60.321,88.307,63.144z"/>
	</g>
	<g>
		<path fill="#FFFFFF" d="M108.415,68.974l11.477-16.784v-0.093h-10.495v-2.239h13.962v1.626l-11.415,16.724v0.092h11.568v2.24
			h-15.097V68.974z"/>
		<path fill="#FFFFFF" d="M140.142,62.99c0,5.493-3.805,7.887-7.395,7.887c-4.02,0-7.119-2.946-7.119-7.641
			c0-4.972,3.253-7.887,7.365-7.887C137.257,55.35,140.142,58.449,140.142,62.99z M128.358,63.144c0,3.253,1.872,5.708,4.511,5.708
			c2.578,0,4.511-2.425,4.511-5.77c0-2.516-1.258-5.707-4.449-5.707S128.358,60.321,128.358,63.144z"/>
		<path fill="#FFFFFF" d="M143.546,59.707c0-1.534-0.031-2.792-0.123-4.02h2.394l0.153,2.455h0.062
			c0.736-1.412,2.455-2.793,4.91-2.793c2.056,0,5.247,1.228,5.247,6.321v8.868h-2.7v-8.562c0-2.394-0.89-4.388-3.437-4.388
			c-1.779,0-3.16,1.258-3.621,2.762c-0.123,0.338-0.184,0.798-0.184,1.258v8.93h-2.7V59.707z"/>
		<path fill="#FFFFFF" d="M168.798,70.539l-0.215-1.872h-0.092c-0.828,1.166-2.424,2.21-4.541,2.21
			c-3.008,0-4.542-2.117-4.542-4.266c0-3.59,3.191-5.554,8.93-5.523v-0.307c0-1.228-0.338-3.437-3.375-3.437
			c-1.381,0-2.823,0.429-3.867,1.104l-0.614-1.78c1.228-0.798,3.007-1.319,4.879-1.319c4.542,0,5.646,3.1,5.646,6.076v5.554
			c0,1.289,0.062,2.547,0.245,3.56H168.798z M168.399,62.96c-2.946-0.062-6.291,0.46-6.291,3.345c0,1.749,1.166,2.577,2.547,2.577
			c1.934,0,3.161-1.228,3.591-2.485c0.092-0.276,0.153-0.583,0.153-0.859V62.96z"/>
	</g>
</g>
</svg>
